<?xml version="1.0" encoding="UTF-8" standalone="no"?>
<svg
   xmlns:dc="http://purl.org/dc/elements/1.1/"
   xmlns:cc="http://creativecommons.org/ns#"
   xmlns:rdf="http://www.w3.org/1999/02/22-rdf-syntax-ns#"
   xmlns:svg="http://www.w3.org/2000/svg"
   xmlns="http://www.w3.org/2000/svg"
   xmlns:sodipodi="http://sodipodi.sourceforge.net/DTD/sodipodi-0.dtd"
   xmlns:inkscape="http://www.inkscape.org/namespaces/inkscape"
   height="48"
   width="48"
   version="1.1"
   viewBox="0 0 48 48"
   id="svg2"
   inkscape:version="0.91 r13725"
   sodipodi:docname="budgie-logo-symbolic.svg">
  <defs
     id="defs10" />
  <sodipodi:namedview
     pagecolor="#ffffff"
     bordercolor="#666666"
     borderopacity="1"
     objecttolerance="10"
     gridtolerance="10"
     guidetolerance="10"
     inkscape:pageopacity="0"
     inkscape:pageshadow="2"
     inkscape:window-width="1280"
     inkscape:window-height="964"
     id="namedview8"
     showgrid="false"
     inkscape:zoom="7.375"
     inkscape:cx="20.409876"
     inkscape:cy="20.277457"
     inkscape:window-x="0"
     inkscape:window-y="32"
     inkscape:window-maximized="1"
     inkscape:current-layer="svg2" />
  <metadata
     id="metadata4">
    <rdf:RDF>
      <cc:Work
         rdf:about="">
        <dc:format>image/svg+xml</dc:format>
        <dc:type
           rdf:resource="http://purl.org/dc/dcmitype/StillImage" />
        <dc:title></dc:title>
      </cc:Work>
    </rdf:RDF>
  </metadata>
  <path
     d="M 24,11.5 A 12.5,12.5 0 0 0 11.5,24 12.5,12.5 0 0 0 24,36.5 12.5,12.5 0 0 0 36.5,24 12.5,12.5 0 0 0 24,11.5 Z m 3.125,6.445313 c 2.859375,0 5.329688,2.421562 5.446875,5.26125 L 34.15625,24 l -1.7,0.851406 c -0.271875,1.444219 -0.932812,2.806407 -1.815625,3.836094 -1.171875,1.367187 -3.90625,2.929687 -6.445312,2.929687 -2.148438,0 -3.125001,-0.195312 -5.273438,-1.5625 C 17.652344,29.175 16.578125,27.90625 15.992188,26.539063 15.61875,25.543438 15.404844,24.467344 15.40625,23.414062 c 7.86e-4,-0.599531 0.124531,-1.191093 0.195313,-1.757812 0.390625,1.171875 0.976562,1.5625 1.757812,1.953125 0.976562,0.390625 2.148437,0.195312 2.929687,-0.585938 1.757813,-1.757812 1.961876,-2.952968 3.515625,-4.101562 1.180626,-0.804531 1.953126,-0.976562 3.320313,-0.976562 z"
     id="path6"
     inkscape:connector-curvature="0"
     style="fill:#bebebe" />
</svg>
